HIERARCHY
ROOT Hips
{
 OFFSET 0.000000 0.000000 0.000000
 CHANNELS 6 Xposition Yposition Zposition Yrotation Xrotation Zrotation
 JOINT Chest
 {
  OFFSET 0.000000 9.585900 0.002600
  CHANNELS 3 Yrotation Xrotation Zrotation
  JOINT Chest2
  {
   OFFSET 0.000000 9.601200 -0.005300
   CHANNELS 3 Yrotation Xrotation Zrotation
   JOINT Chest3
   {
    OFFSET 0.000000 9.561800 0.000000
    CHANNELS 3 Yrotation Xrotation Zrotation
    JOINT Chest4
    {
     OFFSET 0.000000 9.552100 0.000000
     CHANNELS 3 Yrotation Xrotation Zrotation
     JOINT Neck
     {
      OFFSET 0.000000 14.453000 0.000000
      CHANNELS 3 Yrotation Xrotation Zrotation
      JOINT Head
      {
       OFFSET 0.000000 8.936500 -0.011300
       CHANNELS 3 Yrotation Xrotation Zrotation
       End Site
       {
        OFFSET 0.000000 17.073600 -0.006000
       }
      }
     }
     JOINT RightCollar
     {
      OFFSET -2.921100 9.558500 0.000000
      CHANNELS 3 Yrotation Xrotation Zrotation
      JOINT RightShoulder
      {
       OFFSET -13.519700 0.000000 0.000000
       CHANNELS 3 Yrotation Xrotation Zrotation
       JOINT RightElbow
       {
        OFFSET 0.000000 -29.696600 0.000000
        CHANNELS 3 Yrotation Xrotation Zrotation
        JOINT RightWrist
        {
         OFFSET 0.000000 -24.004700 0.000000
         CHANNELS 3 Yrotation Xrotation Zrotation
         End Site
         {
          OFFSET 0.000000 -17.728500 0.000000
         }
        }
       }
      }
     }
     JOINT LeftCollar
     {
      OFFSET 2.921100 9.558500 0.000000
      CHANNELS 3 Yrotation Xrotation Zrotation
      JOINT LeftShoulder
      {
       OFFSET 13.519700 0.000000 0.000000
       CHANNELS 3 Yrotation Xrotation Zrotation
       JOINT LeftElbow
       {
        OFFSET 0.000000 -29.696600 0.000000
        CHANNELS 3 Yrotation Xrotation Zrotation
        JOINT LeftWrist
        {
         OFFSET 0.000000 -24.004700 0.000000
         CHANNELS 3 Yrotation Xrotation Zrotation
         End Site
         {
          OFFSET 0.000000 -17.728500 0.000000
         }
        }
       }
      }
     }
    }
   }
  }
 }
 JOINT RightHip
 {
  OFFSET -7.771700 -0.012900 -0.001300
  CHANNELS 3 Yrotation Xrotation Zrotation
  JOINT RightKnee
  {
   OFFSET 0.000000 -40.869800 0.001200
   CHANNELS 3 Yrotation Xrotation Zrotation
   JOINT RightAnkle
   {
    OFFSET 0.000000 -39.717900 0.002100
    CHANNELS 3 Yrotation Xrotation Zrotation
    JOINT RightToe
    {
     OFFSET 0.000000 -4.965400 11.033500
     CHANNELS 3 Yrotation Xrotation Zrotation
     End Site
     {
      OFFSET 0.000000 -1.423100 5.872300
     }
    }
   }
  }
 }
 JOINT LeftHip
 {
  OFFSET 7.771700 -0.012900 -0.001300
  CHANNELS 3 Yrotation Xrotation Zrotation
  JOINT LeftKnee
  {
   OFFSET 0.000000 -40.869800 0.001200
   CHANNELS 3 Yrotation Xrotation Zrotation
   JOINT LeftAnkle
   {
    OFFSET 0.000000 -39.717900 0.002100
    CHANNELS 3 Yrotation Xrotation Zrotation
    JOINT LeftToe
    {
     OFFSET 0.000000 -4.965400 11.033500
     CHANNELS 3 Yrotation Xrotation Zrotation
     End Site
     {
      OFFSET 0.000000 -1.423100 5.872300
     }
    }
   }
  }
 }
}
MOTION
Frames: 7
Frame Time: 0.008333
0.000000 85.388000 0.000000 0.000000 -5.767877 0.000000 0.000000 11.653817 0.000000 0.000000 -5.885947 0.000000 0.000000 -0.000000 0.000000 0.000000 -0.000000 0.000000 0.000000 12.528835 0.000000 0.000000 0.711642 0.000000 0.000000 -0.000000 0.000000 0.000000 0.000000 -90.000000 0.000000 -2.309062 0.000000 0.000000 2.309062 0.000000 0.000000 -0.000000 0.000000 0.000000 -0.000000 90.000000 0.000000 -2.309062 0.000000 0.000000 2.309062 0.000000 0.000000 8.520406 0.000000 0.000000 1.905762 0.000000 -0.000000 -4.658285 0.000000 0.000000 -0.000000 0.000000 0.000000 8.520406 0.000000 0.000000 1.905762 0.000000 -0.000000 -4.658285 0.000000 0.000000 -0.000000 0.000000
-76.248312 48.042285 20.680871 173.159313 -31.172817 -0.423839 -0.168276 15.215985 1.866120 -0.247231 8.700724 1.532302 -0.269078 10.904697 1.920290 -0.250922 8.684727 1.530357 0.057354 16.336930 -2.122342 0.894075 -5.332701 -3.954707 5.261949 3.737131 -4.792457 -1.225930 -17.286901 -9.044764 45.642754 -68.341050 -31.091193 12.688918 3.958929 -39.621722 -3.970383 0.954005 -3.811138 5.804019 -22.120298 -1.616288 -76.433244 -51.146217 50.153451 -10.580249 10.319904 34.436198 28.586756 -49.153688 -33.076778 -114.825812 71.209494 -103.950865 5.867932 -5.582925 4.406523 0.220553 -1.001689 0.090088 -8.643328 -53.325096 16.053017 92.181359 81.993732 90.697345 -5.044265 -9.260688 -5.508965 0.357990 0.835242 0.163363
-76.249688 48.041383 20.679892 173.159249 -31.170985 -0.422487 -0.168890 15.208914 1.863706 -0.248988 8.689504 1.530608 -0.271241 10.900912 1.918560 -0.250631 8.683964 1.530874 0.075703 16.391692 -2.115449 0.925358 -5.217414 -3.946577 5.269330 3.723998 -4.784994 -1.194044 -17.297043 -9.066108 45.508679 -68.319541 -30.950198 12.685076 3.970199 -39.637872 -3.996628 0.945139 -3.828326 5.790789 -22.097159 -1.542623 -76.423418 -51.173746 50.129822 -10.561301 10.333243 34.459495 28.589508 -49.156832 -33.087179 -114.838796 71.212217 -103.965310 5.881747 -5.577332 4.409241 0.209076 -1.010076 0.088601 -8.642361 -53.328045 16.053862 92.199736 81.996048 90.715321 -5.048491 -9.262888 -5.510717 0.365518 0.834218 0.165839
-76.250205 48.040355 20.678913 173.155999 -31.168621 -0.425707 -0.167708 15.187203 1.863213 -0.248315 8.695915 1.533803 -0.272436 10.889882 1.916330 -0.252677 8.675428 1.534415 0.106249 16.481220 -2.106044 0.940769 -5.117972 -3.942953 5.290846 3.683618 -4.784518 -1.194497 -17.240361 -9.071303 45.454330 -68.310166 -30.896980 12.674552 3.973000 -39.635899 -4.026680 0.947741 -3.849506 5.748942 -22.088915 -1.403246 -76.352197 -51.249750 50.058953 -10.559196 10.338128 34.475906 28.589367 -49.161440 -33.084033 -114.841721 71.211675 -103.968032 5.883959 -5.579619 4.412708 0.214742 -1.009564 0.086503 -8.647582 -53.331238 16.066335 92.225761 81.997670 90.742525 -5.058215 -9.265629 -5.514522 0.375494 0.833838 0.169657
-76.250258 48.039211 20.678043 173.154528 -31.165096 -0.433447 -0.170519 15.167908 1.868396 -0.248676 8.692019 1.534332 -0.270526 10.883454 1.917905 -0.258162 8.658477 1.533761 0.116257 16.533139 -2.106592 0.973838 -4.965006 -3.936172 5.306457 3.686109 -4.784818 -1.196520 -17.204578 -9.072352 45.432091 -68.307235 -30.870084 12.660077 3.975792 -39.633008 -4.056298 0.960123 -3.870311 5.744695 -22.073551 -1.320359 -76.321052 -51.287956 50.012967 -10.570145 10.332097 34.470182 28.583837 -49.168195 -33.078156 -114.852806 71.218651 -103.975433 5.882611 -5.583755 4.410587 0.217253 -1.007772 0.085585 -8.658360 -53.336075 16.084401 92.259931 82.001820 90.774289 -5.049583 -9.267828 -5.513521 0.372750 0.834544 0.170747
-76.251035 48.039176 20.675254 173.150731 -31.174047 -0.434736 -0.170943 15.161394 1.870510 -0.252201 8.680410 1.532456 -0.272910 10.883581 1.916024 -0.257221 8.647915 1.532865 0.131686 16.605628 -2.101297 0.992212 -4.831680 -3.929957 5.320593 3.681109 -4.782284 -1.188153 -17.189449 -9.082046 45.331853 -68.290720 -30.739455 12.650816 3.982277 -39.658886 -4.085069 0.963580 -3.884890 5.758407 -22.049340 -1.271839 -76.299081 -51.308138 49.989829 -10.584423 10.316935 34.450250 28.573363 -49.160191 -33.068395 -114.862910 71.220178 -103.983312 5.887944 -5.596102 4.407957 0.211108 -1.001973 0.086436 -8.654799 -53.328706 16.086950 92.307505 82.001691 90.821094 -5.045682 -9.271198 -5.514169 0.363930 0.831637 0.170228
-76.252783 48.039185 20.672466 173.149828 -31.182522 -0.431905 -0.174632 15.153359 1.864847 -0.253334 8.672815 1.531327 -0.280730 10.841765 1.913581 -0.253362 8.672763 1.531260 0.147405 16.714874 -2.091356 0.997825 -4.723109 -3.925068 5.330216 3.700707 -4.775999 -1.187609 -17.201174 -9.089393 45.244651 -68.269702 -30.627747 12.638241 3.985053 -39.668382 -4.096770 0.986668 -3.890270 5.729402 -22.055693 -1.184093 -76.245460 -51.352291 49.914734 -10.560970 10.324557 34.477880 28.570446 -49.151101 -33.069511 -114.886898 71.228968 -104.005143 5.883367 -5.604527 4.407027 0.223566 -1.003521 0.090111 -8.645814 -53.321211 16.079493 92.344884 82.001940 90.858347 -5.048077 -9.278602 -5.517998 0.360004 0.832309 0.173167
